M48
; DRILL file {KiCad 9.0.0} date 2025-03-23T22:38:43+0100
; FORMAT={-:-/ absolute / metric / decimal}
; #@! TF.CreationDate,2025-03-23T22:38:43+01:00
; #@! TF.GenerationSoftware,Kicad,Pcbnew,9.0.0
; #@! TF.FileFunction,Plated,1,2,PTH
FMAT,2
METRIC
; #@! TA.AperFunction,Plated,PTH,ViaDrill
T1C0.800
; #@! TA.AperFunction,Plated,PTH,ComponentDrill
T2C0.800
; #@! TA.AperFunction,Plated,PTH,ComponentDrill
T3C0.900
; #@! TA.AperFunction,Plated,PTH,ComponentDrill
T4C1.000
%
G90
G05
T1
X112.5Y-82.0
X113.5Y-52.5
X115.0Y-82.0
X139.656Y-51.5
X141.954Y-51.599
X146.0Y-52.5
T2
X130.58Y-76.5
X135.5Y-83.25
X135.5Y-90.75
T3
X105.5Y-50.46
X105.5Y-53.0
T4
X104.8Y-82.0
X107.34Y-82.0
X108.19Y-86.69
X108.19Y-94.31
X109.88Y-82.0
X110.73Y-86.69
X110.73Y-94.31
X112.0Y-54.92
X112.0Y-65.08
X112.42Y-82.0
X113.27Y-86.69
X113.27Y-94.31
X114.96Y-82.0
X115.81Y-86.69
X115.81Y-94.31
X117.5Y-82.0
X118.0Y-62.5
X118.0Y-67.5
X118.796Y-49.2
X120.42Y-73.5
X120.42Y-76.5
X120.42Y-91.0
X121.336Y-49.2
X123.876Y-49.2
X126.19Y-55.69
X126.19Y-58.23
X126.19Y-60.77
X126.19Y-63.31
X126.416Y-49.2
X126.71Y-85.025
X127.94Y-97.46
X128.956Y-49.2
X129.25Y-85.025
X130.48Y-97.46
X130.58Y-73.5
X130.58Y-91.0
X131.496Y-49.2
X131.92Y-67.0
X133.02Y-97.46
X133.81Y-55.69
X133.81Y-58.23
X133.81Y-60.77
X133.81Y-63.31
X134.036Y-49.2
X134.46Y-67.0
X135.56Y-97.46
X136.576Y-49.2
X137.0Y-67.0
X138.1Y-97.46
X139.116Y-49.2
X140.64Y-97.46
X141.656Y-49.2
X142.0Y-81.92
X142.0Y-92.08
X143.18Y-97.46
X143.772Y-56.966
X143.772Y-59.506
X143.772Y-62.046
X143.772Y-64.586
X143.772Y-67.126
X145.72Y-49.2
X145.72Y-97.46
X148.0Y-84.5
X148.0Y-89.5
X148.26Y-49.2
X149.88Y-72.5
X150.8Y-49.2
X150.8Y-97.46
X152.42Y-72.5
X153.34Y-49.2
X153.34Y-97.46
X154.0Y-81.5
X154.0Y-91.66
X154.96Y-72.5
X155.88Y-49.2
X155.88Y-97.46
X157.5Y-72.5
X158.42Y-49.2
X158.42Y-97.46
X160.6Y-85.26
X160.6Y-87.8
X160.96Y-49.2
X160.96Y-97.46
X163.5Y-49.2
X163.5Y-97.46
M30
