M48
; DRILL file {KiCad 9.0.0} date 2025-03-25T15:20:38+0100
; FORMAT={-:-/ absolute / metric / decimal}
; #@! TF.CreationDate,2025-03-25T15:20:38+01:00
; #@! TF.GenerationSoftware,Kicad,Pcbnew,9.0.0
; #@! TF.FileFunction,Plated,1,2,PTH
FMAT,2
METRIC
; #@! TA.AperFunction,Plated,PTH,ComponentDrill
T1C0.800
; #@! TA.AperFunction,Plated,PTH,ComponentDrill
T2C1.000
%
G90
G05
T1
X111.0Y-69.75
X111.0Y-77.25
T2
X110.92Y-92.0
X111.96Y-98.0
X114.5Y-98.0
X115.5Y-84.5
X117.0Y-67.92
X117.0Y-78.08
X118.796Y-49.2
X120.5Y-84.5
X121.08Y-92.0
X121.336Y-49.2
X123.876Y-49.2
X123.92Y-107.0
X124.38Y-54.0
X124.38Y-61.62
X125.69Y-68.69
X125.69Y-76.31
X126.416Y-49.2
X126.92Y-54.0
X126.92Y-61.62
X127.0Y-81.76
X127.0Y-91.92
X127.94Y-97.46
X128.23Y-68.69
X128.23Y-76.31
X128.956Y-49.2
X129.46Y-54.0
X129.46Y-61.62
X130.48Y-97.46
X130.77Y-68.69
X130.77Y-76.31
X131.496Y-49.2
X132.0Y-54.0
X132.0Y-61.62
X133.02Y-97.46
X133.31Y-68.69
X133.31Y-76.31
X134.036Y-49.2
X134.08Y-107.0
X135.56Y-97.46
X136.576Y-49.2
X138.1Y-97.46
X138.78Y-53.53
X138.78Y-56.07
X139.0Y-59.5
X139.0Y-69.66
X139.116Y-49.2
X139.84Y-45.0
X140.0Y-106.5
X140.64Y-97.46
X141.656Y-49.2
X142.38Y-45.0
X143.18Y-97.46
X144.92Y-45.0
X145.0Y-106.5
X145.72Y-49.2
X145.72Y-97.46
X147.46Y-45.0
X148.26Y-49.2
X149.0Y-55.96
X149.0Y-58.5
X149.0Y-61.04
X150.0Y-45.0
X150.8Y-49.2
X150.8Y-97.46
X151.0Y-82.42
X151.0Y-92.58
X151.7Y-106.6
X152.54Y-45.0
X153.34Y-49.2
X153.34Y-97.46
X154.24Y-106.6
X155.88Y-49.2
X155.88Y-97.46
X157.88Y-109.0
X158.42Y-49.2
X158.42Y-97.46
X160.42Y-109.0
X160.96Y-49.2
X160.96Y-97.46
X162.96Y-109.0
X163.5Y-49.2
X163.5Y-97.46
X165.5Y-109.0
X182.0Y-56.0
X182.0Y-58.54
X182.0Y-61.08
X182.0Y-63.62
X182.0Y-66.16
M30
